<svg width="7" height="11" viewBox="0 0 7 11" fill="none" xmlns="http://www.w3.org/2000/svg">
<path d="M1.10291 9.90071L1.10285 9.90066C0.97867 9.77333 0.909471 9.60122 0.909739 9.42235V9.42231C0.910069 9.24345 0.979856 9.07155 1.10449 8.94465L1.1044 8.94475L1.17587 9.01469L1.10454 8.94461L1.10291 9.90071ZM1.10291 9.90071C1.22725 10.028 1.39644 10.1 1.57343 10.1M1.10291 9.90071L1.57343 10.1M1.57343 10.1C1.75036 10.1 1.9196 10.028 2.04395 9.90071M1.57343 10.1L2.04395 9.90071M2.04395 9.90071L5.87713 5.98301C6.00159 5.85589 6.07107 5.68385 6.07107 5.50497C6.07107 5.3261 6.00159 5.15406 5.87713 5.02693L2.04472 1.11002C1.92157 0.978233 1.75119 0.902213 1.57187 0.90005C1.57185 0.90005 1.57184 0.90005 1.57183 0.90005L1.57063 1.00004M2.04395 9.90071L1.00006 1.58466C0.997944 1.42916 1.05737 1.27933 1.16481 1.16926M1.57063 1.00004C1.41859 0.998165 1.27225 1.05919 1.16481 1.16926M1.57063 1.00004C1.72267 1.00187 1.86755 1.06646 1.97241 1.17911L1.57063 1.00004ZM1.16481 1.16926L1.09324 1.09941C0.967031 1.22872 0.897605 1.40425 0.900068 1.58599L1.16481 1.16926ZM4.47025 5.50498L4.53869 5.57492L4.61016 5.50498L4.53869 5.43505L4.47025 5.50498Z" fill="white" stroke="white" stroke-width="0.2"/>
</svg>
