<svg width="592" height="206" viewBox="0 0 592 206" fill="none" xmlns="http://www.w3.org/2000/svg">
<path d="M211.774 108.38V148H187.834V72.68H209.814V81.78C215.694 75.2 222.694 71.28 232.214 71.28C247.054 71.28 257.554 81.22 257.554 99.56V148H233.614V107.54C233.614 98.02 230.254 92.84 222.974 92.84C217.094 92.84 211.774 97.04 211.774 108.38ZM306.619 149.26C283.379 149.26 267.839 133.58 267.839 110.2C267.839 87.66 284.079 71.28 306.479 71.28C331.399 71.28 348.059 91.58 343.719 116.36H292.619C293.879 125.88 298.359 130.64 306.059 130.64C312.779 130.64 317.259 127.84 319.359 122.38H343.299C338.679 139.6 325.379 149.26 306.619 149.26ZM305.919 88.92C298.779 88.92 294.579 92.98 292.899 101.38H318.099C317.819 93.82 313.059 88.92 305.919 88.92ZM371.796 148H344.916L369.276 109.78L346.596 72.68H374.456L387.056 96.62L399.656 72.68H424.996L402.736 110.76L426.816 148H399.516L385.376 123.36L371.796 148ZM481.048 115.66V72.68H504.988V148H483.008V139.88C478.808 145.48 470.828 149.4 462.008 149.4C447.028 149.4 435.688 140.02 435.688 120.14V72.68H459.628V115.66C459.628 123.92 463.688 127.98 470.408 127.98C475.168 127.98 481.048 124.2 481.048 115.66ZM587.387 122.38C587.387 139.04 575.067 149.4 552.387 149.4C529.707 149.4 517.387 138.76 515.847 121.4H538.807C538.807 127.7 544.547 131.76 552.807 131.76C558.267 131.76 563.167 130.5 563.167 126.58C563.167 123.22 560.647 121.82 555.467 120.84L540.627 118.18C527.467 115.8 519.067 108.24 519.067 96.06C519.067 81.5 531.387 71.28 551.127 71.28C570.867 71.28 584.587 81.78 585.987 98.58H563.027C562.467 92.56 557.847 88.92 551.267 88.92C545.667 88.92 542.027 90.46 542.027 93.82C542.027 97.04 544.407 98.02 549.167 98.86L565.127 101.8C579.687 104.46 587.387 111.6 587.387 122.38Z" fill="#14142D"/>
<path d="M71.1055 173.532C90.5088 182.119 108.631 180.592 125.475 168.95C144.301 153.594 151.773 135.882 147.892 115.82C132.37 139.185 112.514 149.55 88.3213 146.906C66.6889 141.208 52.9818 124.943 47.2033 98.1085C36.2219 110.658 33.8685 125.437 40.1449 142.445C45.3455 155.821 55.6662 166.182 71.1058 173.53M36.5529 66.6497C23.1772 71.8516 12.8156 82.1722 5.46777 97.6119C-3.11932 117.015 -1.59194 135.138 10.0499 151.981C25.4063 170.806 43.118 178.278 63.1805 174.398C39.8145 158.876 29.4503 139.019 32.094 114.826C37.7915 93.194 54.0568 79.4869 80.8915 73.7084C68.3418 62.727 53.5629 60.3736 36.5549 66.6487M88.3252 31.4763C111.691 46.9989 122.052 66.8552 119.412 91.0474C113.714 112.68 97.4489 126.387 70.6142 132.165C83.1652 143.147 97.9441 145.5 114.951 139.225C128.327 134.023 138.688 123.703 146.037 108.263C154.624 88.8596 153.097 70.7372 141.455 53.8934C126.098 35.0686 108.387 27.5956 88.3246 31.476M111.113 63.5533C105.911 50.1775 95.5905 39.8159 80.1508 32.4668C60.7475 23.881 42.6251 25.4084 25.7813 37.0489C6.95517 52.4063 -0.51654 70.1171 3.36386 90.1795C18.8864 66.8135 38.7427 56.4526 62.935 59.0944C84.5674 64.7906 98.2745 81.0559 104.053 107.892C115.034 95.3421 117.388 80.5619 111.113 63.5552L111.113 63.5533Z" fill="#5383FF"/>
</svg>
